<svg id="Layer_1" data-name="Layer 1" xmlns="http://www.w3.org/2000/svg" viewBox="0 0 100 100"><path d="M83.71,53.43l-28.5,5-1.36,7.7L58.1,90.38c.84,4.76,32-.72,31.12-5.48Z" fill="#fdb73e"/><path d="M74.33,58.33a6.31,6.31,0,1,1-5.39,7.35A6.45,6.45,0,0,1,74.33,58.33Z" fill="#fee0af"/><path d="M63,77.33a4.95,4.95,0,1,1,5.68,3.8A4.83,4.83,0,0,1,63,77.33Z" fill="#fee0af"/><path d="M75,79.63a3.29,3.29,0,1,1,3.78,2.53A3.21,3.21,0,0,1,75,79.63Z" fill="#fee0af"/><path d="M71.77,84.71a2.21,2.21,0,1,1-1.89,2.58A2.26,2.26,0,0,1,71.77,84.71Z" fill="#fee0af"/><path d="M69.39,32.43l-1-3.54c2.74-1.44,9.27-2.75,12.36.69,6.55-2.66,12,7.69,1.68,8.83Z" fill="#d8d2b8"/><path d="M69.05,29.82c2.07-1.25,8.25-2.6,11.27.53,7-2.78,10.38,8.34.74,8.13l2.65,15L61,57.4c-.12,1.62-2.58,3.38-5.33,2.87a4.4,4.4,0,0,1-1.46,4l1.89-10.83Z" fill="#fff"/><g opacity="0.8" style="isolation:isolate"><path d="M91.78,72l-4-22.63c2.5-.51,4.95-.46,5.59,1.41,1.41,4.09,1.59,10.64,1.28,15A10.06,10.06,0,0,1,91.78,72Zm-44,10.34c-1,5.85-39.28-.9-38.25-6.75L19.34,19.8,57.6,26.54ZM5.87,53.1c-.33-4.8-.14-12,1.41-16.5.7-2.06,3.39-2.11,6.15-1.55L9,59.94A11.17,11.17,0,0,1,5.87,53.1ZM99.93,64.83c.36-4.79-.7-14.12-2.37-18.9-1.26-3.59-6.43-3.24-10.77-2.24l-1.08-6.17a18.63,18.63,0,0,1-2.77.84l8.41,47.85c.94,5.32-33.83,11.45-34.77,6.13L52.9,71.51l8.54-48.44L16.92,15.22l-2.4,13.6C9.76,27.71,4.07,27.33,2.69,31.28.85,36.54-.32,46.79.08,52.07A21.36,21.36,0,0,0,7.83,66.8L5.49,80C4.22,87.25,48.74,95.1,50,87.89l1.42-8,3.1,17.56C55.69,104,96.16,96.82,95,90.26l-2.12-12A19.49,19.49,0,0,0,99.93,64.83Z" fill="#a1b8c7"/></g><path d="M17.92,39.53l34.23,6L46.09,80.17c-.93,5.24-35.16-.8-34.23-6Z" fill="#fdb73e"/><path d="M64.94,25.66c.54-7.78-9.17-13.23-16.29-10.12C46.33,9,37.75,8.89,34.22,12.33c-3-1.59-9.61-2.82-13,1C14,10.37,8,21.75,19.38,23c16.59-2.75,35,30.3,35,30.3,3.09.55,7.28-1,6.37-5.93,1.88.26,4.72-2.94,4.11-5.86C72.24,39.48,71.61,27.66,64.94,25.66Z" fill="#d8d2b8"/><path d="M63.4,26.43c.57-8.64-10.89-11.78-15.9-9.68-1.75-4.91-9.11-7.16-13.45-3.19-2.29-1.38-9.08-2.87-12.4.58-7.74-3.05-11.42,9.17-.82,8.94L17.92,39.53l25,4.36c.13,1.78,2.83,3.72,5.87,3.16-.61,3.17,2.52,5.94,5.57,6.25a4.74,4.74,0,0,0,4.74-6.74,4.12,4.12,0,0,0,4-5.52C70.16,39.21,70.16,27.89,63.4,26.43Z" fill="#fff"/><path d="M51.14,21.53c.34-3-2-6.61-7.46-5.53-.74-1.28-2.08-2-4.42-.71,2.61,0,3.55.75,4,2.16a5.87,5.87,0,0,1,6.06,5s2.32.16,3.08,3.2A2.73,2.73,0,0,0,51.14,21.53Z" fill="#d8d2b8"/><path d="M54.15,33.78c-4-3.86-7.94-2.09-9.27.58a2.73,2.73,0,0,0-3.29,2.74c2.3-2.13,4.33-1,4.33-1a5.89,5.89,0,0,1,7.8-.86c1.14-.94,2.34-1.08,4.52.36C57,33.25,55.47,33.11,54.15,33.78Z" fill="#d8d2b8"/><path d="M28.24,44.91a6.94,6.94,0,1,0-2.41,13.66,6.94,6.94,0,1,0,2.41-13.66Z" fill="#fee0af"/><path d="M30,63.92A5.44,5.44,0,1,1,34.45,70,5.32,5.32,0,0,1,30,63.92Z" fill="#fee0af"/><path d="M24.57,64.3a3.47,3.47,0,1,0,3,4A3.56,3.56,0,0,0,24.57,64.3Z" fill="#fee0af"/><path d="M31.05,73.93a2.43,2.43,0,1,0,2.08,2.84A2.5,2.5,0,0,0,31.05,73.93Z" fill="#fee0af"/><polygon points="70.79 21.3 86.78 7.48 79.16 2.06 70.79 21.3" fill="#42ade2"/><polygon points="78.15 24.14 93.33 27.53 93.33 19.48 78.15 24.14" fill="#42ade2"/><polygon points="65.55 16.21 69.31 0 61.13 0 65.55 16.21" fill="#42ade2"/></svg>