<svg id="Layer_1" data-name="Layer 1" xmlns="http://www.w3.org/2000/svg" viewBox="0 0 100 100"><ellipse cx="25.79" cy="96.49" rx="20.79" ry="2.5" fill="#65b1ef"/><ellipse cx="69.92" cy="97" rx="30.08" ry="3" fill="#65b1ef"/><circle cx="50" cy="50" r="50" fill="#ffdd67"/><path d="M71.23,73.33c-2.33-6-8-10-21.23-10s-18.91,4-21.23,10c-1.24,3.2.54,8.34.54,8.34C31.52,88.14,31.21,90,50,90s18.48-1.86,20.69-8.33C70.69,81.67,72.47,76.53,71.23,73.33Z" fill="#664e27"/><path d="M65,71.61a1.54,1.54,0,0,0-.28-1.33S61.32,66.67,50,66.67s-14.67,3.61-14.67,3.61A1.55,1.55,0,0,0,35,71.61l.26.94a1,1,0,0,0,.87.78H63.82a1,1,0,0,0,.88-.78Z" fill="#fff"/><path d="M70.8,97.45H82.19c13.67-16.53-2.57-33.37,1.5-49.66-3.8,0-7.6,4.24-11.39,4.24C67.05,67.84,84.47,80.92,70.8,97.45Z" fill="#65b1ef"/><path d="M29.2,97.45H17.81c-13.67-16.53,2.57-33.37-1.5-49.66,3.8,0,7.59,4.24,11.39,4.24C33,67.84,15.53,80.92,29.2,97.45Z" fill="#65b1ef"/><path d="M64.44,27.17a23.7,23.7,0,0,0,19,6.9c1-.1,1.52,3.52.33,3.64a27.39,27.39,0,0,1-21.88-8C61,28.89,63.76,26.47,64.44,27.17Z" fill="#917524"/><path d="M16.59,34.07a23.74,23.74,0,0,0,19-6.9c.68-.71,3.42,1.72,2.59,2.58a27.4,27.4,0,0,1-21.88,8C15.08,37.58,15.62,34,16.59,34.07Z" fill="#917524"/><path d="M56.52,47.13c7,13.25,21.16,13.25,28.19,0,.34-.67-.57-1-1.69-1.73-7,5.53-18.43,5-24.81,0C57.09,46.16,56.18,46.46,56.52,47.13Z" fill="#664e27"/><path d="M15.29,47.13c7,13.25,21.16,13.25,28.19,0,.34-.67-.57-1-1.68-1.73-7,5.53-18.44,5-24.82,0C15.86,46.16,15,46.46,15.29,47.13Z" fill="#664e27"/></svg>