<svg id="Layer_1" data-name="Layer 1" xmlns="http://www.w3.org/2000/svg" viewBox="0 0 100 100"><path d="M91.6,40.28A114.31,114.31,0,0,1,78.08,50.4C75.76,36.93,69.36,20.31,56.67,0a128.35,128.35,0,0,1-18,42.39A88.76,88.76,0,0,1,30.1,25.74C-13.36,69.2,22.67,100,45.29,100,74.33,100,99.89,86.06,91.6,40.28Z" fill="#ff9d33"/><path d="M74.54,79.05c2.52-5.53,4.26-12.62,4.66-21.65a80.61,80.61,0,0,1-9.47,6.75c-1.62-9-6.1-20.07-15-33.61A83.33,83.33,0,0,1,42.18,58.81a57.87,57.87,0,0,1-6-11.11c-7.22,11.38-10,20.39-10.2,27.43a60.87,60.87,0,0,1-6.45-2.71c6.83,20.37,21,24.8,27.28,24.8,11.31,0,22.82-3.35,34.23-19.51C81,77.71,78.5,78.4,74.54,79.05Z" fill="#ffce31"/><path d="M33.22,69.76s4.66,6.37,8.2,4.83c0,0,6.74-10.5,16.4-16.34,0,0-2,16,.3,18.84,3,3.77,11.22-4.17,11.22-4.17C69.34,82.38,59,94.3,49.73,94.3S27.51,84,33.22,69.76Z" fill="#ffdf85"/><path d="M79.63,26.86A76,76,0,0,0,85.49,16.6c5.86,9.63,2.4,15.48-.17,17.39C81.87,36.56,75.6,32.72,79.63,26.86Z" fill="#ff9d33"/><path d="M15.94,25.22A33.57,33.57,0,0,1,12.14,12C3.8,24.6,7.06,31.45,9.84,33.52,13.56,36.31,19.89,32,15.94,25.22Z" fill="#ff9d33"/><path d="M35.35,12.15a19.19,19.19,0,0,0-1.22-8C42,9.21,42,13.66,40.92,15.39,39.53,17.72,34.86,16.71,35.35,12.15Z" fill="#ff9d33"/></svg>