<svg id="Layer_1" data-name="Layer 1" xmlns="http://www.w3.org/2000/svg" viewBox="0 0 100 100"><path d="M14.87,2.13S4.65,27.52,0,65.62C-.4,69,7.45,66,10.15,64.94,16.27,27.42,25,1.7,25,1.7,22.45,1.27,14.87,2.13,14.87,2.13Z" fill="#ff5a79"/><path d="M32.37,30.94C29.45,43,30.8,49.12,35.61,49.12c5,0,9.75-7.67,12.83-20.26,2.85-12,1.5-17.52-3.3-17.52C40.56,11.34,35.53,18,32.37,30.94Zm26.43-26c3.6,5.83,2,15.09-.15,24.27C55.05,44,46.56,59.37,32.82,59.37c-13,0-14.33-14.09-10.88-28.52C24,22.1,27.5,13.18,32.75,7.26A20.84,20.84,0,0,1,47.91,0C53.32,0,57,1.08,58.8,4.92Z" fill="#ff5a79"/><path d="M71.44,30.94C68.51,43,69.86,49.12,74.66,49.12c5,0,9.76-7.68,12.84-20.26,2.85-12,1.5-17.53-3.3-17.53C79.62,11.34,74.59,18,71.44,30.94Zm26.42-26c3.6,5.83,2,15.09-.15,24.27C94.11,44,85.63,59.37,71.89,59.37c-13,0-14.34-14.09-10.89-28.52,2.11-8.75,5.56-17.67,10.81-23.59C75.87,2.76,81.42,0,87,0,92.38,0,96.06,1.08,97.86,4.92Z" fill="#ff5a79"/><path d="M75.94,77.63c-9,0-55.57,3.67-73.94,5.18-1.25-4.76.39-9,2.51-11C13.73,70,75.07,65.3,79.69,68,78.92,71.35,77.57,75.58,75.94,77.63Z" fill="#ff5a79"/><path d="M68.1,96.3c-9.13,0-38.21,2-57,3.7-1.27-5.3.4-10,2.56-12.26,9.42-1.93,53.53-5.14,58.24-2.14C71.15,89.32,69.77,94,68.1,96.3Z" fill="#ff5a79"/></svg>