<svg id="Layer_1" data-name="Layer 1" xmlns="http://www.w3.org/2000/svg" viewBox="0 0 100 100"><path d="M26.08,47.56V19.41S39.67,26,32.34,40.46c-.24.49,1.87,1,2.14.54,15-25.64-4.82-23.89-8.4-41h-7.3V39.13a21.81,21.81,0,0,0-5.45-.69c-17.77,0-17.77,18.23,0,18.23C19.85,56.67,26.08,52.59,26.08,47.56Z" fill="#4d5357"/><path d="M86.08,0h-7.3V39.13a21.81,21.81,0,0,0-5.45-.69c-17.77,0-17.77,18.23,0,18.23,6.52,0,12.75-4.09,12.75-9.12V19.41S99.67,26,92.34,40.46c-.24.49,1.87,1,2.14.54C109.43,15.36,89.66,17.11,86.08,0Z" fill="#4d5357"/><path d="M40.45,43.33V82.46A21.81,21.81,0,0,0,35,81.77C17.22,81.77,17.22,100,35,100c6.52,0,12.74-4.08,12.74-9.11V62.74S61.33,69.31,54,83.8c-.24.48,1.86,1,2.14.53,14.95-25.63-4.82-23.89-8.41-41Z" fill="#4d5357"/></svg>