<svg id="Layer_1" data-name="Layer 1" xmlns="http://www.w3.org/2000/svg" viewBox="0 0 100 100"><polygon points="41.71 0 50.05 16.67 58.38 0 41.71 0" fill="#4aa9ff"/><polygon points="71.42 1.67 70.31 20.27 85.86 10 71.42 1.67" fill="#4aa9ff"/><polygon points="14.24 10 29.79 20.27 28.67 1.67 14.24 10" fill="#4aa9ff"/><path d="M30.61,100H11V78.53l23,5.28C28.48,89.59,30.61,100,30.61,100Z" fill="#eba352"/><path d="M28.75,100H6.83s.31-10.67-3.37-19.77l27.43,4A37.71,37.71,0,0,0,28.75,100Z" fill="#ffdd67"/><path d="M26.72,70.72h8.34V33.62a4.39,4.39,0,0,0-4.16-4.55h0a4.41,4.41,0,0,0-4.16,4.62Z" fill="#ffdd67"/><path d="M16.87,70.72h9.85V30.5c0-3-2.2-5.5-4.92-5.5a5.25,5.25,0,0,0-4.93,5.5Z" fill="#ffdd67"/><path d="M8.28,70.72h8.59V32.86a4.55,4.55,0,0,0-4.29-4.78h0a4.55,4.55,0,0,0-4.29,4.78Z" fill="#ffdd67"/><path d="M4.37,33.75A4.18,4.18,0,0,0,.45,38.19V70.72H8.28V38.19A4.17,4.17,0,0,0,4.37,33.75Z" fill="#ffdd67"/><path d="M30.9,29.07h0a3.47,3.47,0,0,0-.73.08,4.48,4.48,0,0,1,3.43,4.47v37.1h1.48V33.62A4.39,4.39,0,0,0,30.9,29.07Z" fill="#eba352"/><path d="M21.8,25a3.65,3.65,0,0,0-.74.09,5.33,5.33,0,0,1,4.18,5.41V57.38l1.48,1.67V30.5C26.72,27.47,24.52,25,21.8,25Z" fill="#eba352"/><path d="M12.58,28.08h0a3.65,3.65,0,0,0-.74.08,4.66,4.66,0,0,1,3.56,4.7V57.38l1.48,1.67V32.86A4.55,4.55,0,0,0,12.58,28.08Z" fill="#eba352"/><path d="M4.37,33.75a3.57,3.57,0,0,0-.74.08A4.3,4.3,0,0,1,6.8,38.19V57.38l1.48,1.67V38.19A4.17,4.17,0,0,0,4.37,33.75Z" fill="#eba352"/><path d="M49,53.74c-2.5-2.9-7.54-1.5-11,5.77-2.44,5.09-3.1,4.07-4.43,4.34V59.3S.37,57.21.37,62.21c0,0-1.55,12.28,1.67,20,4.8,11.5,29.44,14.53,37.21-5,1.55-3.89,3.59-8,5.31-12.15C46.64,60,51.77,56.92,49,53.74Z" fill="#ffdd67"/><path d="M47.36,52.57c5.36,4-4.5,11.63-9.16,23.5C31.54,93.06,12.06,93,3.89,85.21c7.42,8.87,28.33,10.52,35.36-8C43.82,65.12,55.09,56,47.36,52.57Z" fill="#eba352"/><path d="M35.06,63.64C28.51,61.36,15,65.85,16.75,78.78c0-12.11,10.79-14.93,16.83-14.93A6.45,6.45,0,0,0,35.06,63.64Z" fill="#eba352"/><path d="M69.39,100H89V78.53L66,83.81C71.52,89.59,69.39,100,69.39,100Z" fill="#eba352"/><path d="M71.25,100H93.17s-.31-10.67,3.37-19.77l-27.43,4A37.71,37.71,0,0,1,71.25,100Z" fill="#ffdd67"/><path d="M73.28,70.72H64.94V33.62a4.39,4.39,0,0,1,4.16-4.55h0a4.41,4.41,0,0,1,4.16,4.62v37Z" fill="#ffdd67"/><path d="M83.13,70.72H73.28V30.5c0-3,2.2-5.5,4.92-5.5a5.25,5.25,0,0,1,4.93,5.5Z" fill="#ffdd67"/><path d="M91.72,70.72H83.13V32.86a4.55,4.55,0,0,1,4.28-4.78h0a4.55,4.55,0,0,1,4.29,4.78Z" fill="#ffdd67"/><path d="M95.63,33.75a4.18,4.18,0,0,1,3.92,4.44V70.72H91.72V38.19A4.17,4.17,0,0,1,95.63,33.75Z" fill="#ffdd67"/><path d="M69.1,29.07h0a3.47,3.47,0,0,1,.73.08,4.48,4.48,0,0,0-3.43,4.47v37.1H64.94V33.62A4.39,4.39,0,0,1,69.1,29.07Z" fill="#eba352"/><path d="M78.2,25a3.65,3.65,0,0,1,.74.09,5.33,5.33,0,0,0-4.18,5.41V57.38l-1.48,1.67V30.5C73.28,27.47,75.48,25,78.2,25Z" fill="#eba352"/><path d="M87.41,28.08h0a3.47,3.47,0,0,1,.73.08,4.66,4.66,0,0,0-3.55,4.7V57.38l-1.48,1.67V32.86A4.55,4.55,0,0,1,87.41,28.08Z" fill="#eba352"/><path d="M95.63,33.75a3.57,3.57,0,0,1,.74.08,4.3,4.3,0,0,0-3.17,4.36V57.38l-1.48,1.67V38.19A4.17,4.17,0,0,1,95.63,33.75Z" fill="#eba352"/><path d="M51,53.74c2.5-2.9,7.54-1.5,11,5.77,2.44,5.09,3.1,4.07,4.43,4.34V59.3s33.2-2.09,33.2,2.91c0,0,1.55,12.28-1.67,20-4.8,11.5-29.44,14.53-37.21-5-1.55-3.89-3.59-8-5.31-12.15C53.36,60,48.23,56.92,51,53.74Z" fill="#ffdd67"/><path d="M52.64,52.57c-5.36,4,4.49,11.63,9.15,23.5,6.67,17,26.15,16.94,34.32,9.14-7.42,8.87-28.33,10.52-35.36-8C56.18,65.12,44.91,56,52.64,52.57Z" fill="#eba352"/><path d="M64.94,63.64C71.49,61.36,85,65.85,83.25,78.78c0-12.11-10.79-14.93-16.83-14.93A6.45,6.45,0,0,1,64.94,63.64Z" fill="#eba352"/></svg>