<svg id="Layer_1" data-name="Layer 1" xmlns="http://www.w3.org/2000/svg" viewBox="0 0 100 100"><circle cx="50" cy="50" r="50" fill="#ffdd67"/><g opacity="0.8" style="isolation:isolate"><circle cx="81.35" cy="56.67" r="13.33" fill="#ff717f"/></g><g opacity="0.8" style="isolation:isolate"><circle cx="18.65" cy="56.67" r="13.33" fill="#ff717f"/></g><path d="M71,63.8c-13.51,9.42-28.51,9.37-41.94,0-1.62-1.13-3.08.82-2,2.63a27,27,0,0,0,45.9,0C74.05,64.62,72.59,62.67,71,63.8Z" fill="#664e27"/><path d="M44.21,41.42c-3.1-8.52-7.77-12.78-12.44-12.78S22.44,32.9,19.34,41.42c-.3.86,1.29,2.41,2.09,1.57a13.74,13.74,0,0,1,10.34-4.43A13.75,13.75,0,0,1,42.12,43C42.92,43.83,44.51,42.28,44.21,41.42Z" fill="#664e27"/><path d="M80.66,41.42c-3.1-8.52-7.77-12.78-12.44-12.78S58.89,32.9,55.79,41.42c-.31.86,1.29,2.41,2.09,1.57a14.29,14.29,0,0,1,20.69,0C79.36,43.83,81,42.28,80.66,41.42Z" fill="#664e27"/></svg>