<svg id="Layer_1" data-name="Layer 1" xmlns="http://www.w3.org/2000/svg" viewBox="0 0 100 100"><circle cx="50" cy="50" r="50" fill="#ffdd67"/><path d="M76.46,60H23.54a1.72,1.72,0,0,0-1.87,1.67c0,12.11,9.93,25,28.33,25s28.34-12.89,28.34-25A1.72,1.72,0,0,0,76.46,60Z" fill="#664e27"/><path d="M65.3,70H34.71c-1.18,0-1.37.53-1.37,1.41v6.66C33.34,92.67,40.8,100,50,100s16.67-7.33,16.67-21.93V71.41C66.67,70.53,66.48,70,65.3,70Z" fill="#ff717f"/><polygon points="52.5 70 50 92.98 47.5 70 52.5 70" fill="#e2596c"/><path d="M82.78,35.63a1,1,0,0,1-.27,1.82c-4.49.67-9.25,1.43-13.76,3.93a25.38,25.38,0,0,1,15,8A1,1,0,0,1,82.84,51a56.83,56.83,0,0,0-26.4-3.39c-.82.08-1.51-.38-1.34-1.13C57.84,34.49,73.29,30,82.78,35.63Z" fill="#664e27"/><path d="M17.22,35.63a1,1,0,0,0,.28,1.82c4.48.67,9.24,1.43,13.76,3.93a25.4,25.4,0,0,0-15,8A1,1,0,0,0,17.16,51a56.85,56.85,0,0,1,26.41-3.39c.81.08,1.5-.38,1.33-1.13C42.16,34.49,26.71,30,17.22,35.63Z" fill="#664e27"/></svg>