<svg id="Layer_1" data-name="Layer 1" xmlns="http://www.w3.org/2000/svg" viewBox="0 0 100 100"><circle cx="50" cy="50" r="50" fill="#ffdd67"/><path d="M79.49,54.06c-.67-.87-1.87-.72-3.18-.72H23.69c-1.31,0-2.51-.15-3.18.72C14,62.37,21.66,86.67,50,86.67S86,62.37,79.49,54.06Z" fill="#664e27"/><path d="M53.07,66.23c-1,0-2.45.88-1.9,3.26.27,1.21,2,2.67,2,4.61,0,4-6.3,4-6.3,0,0-1.94,1.71-3.4,2-4.61.54-2.38-1-3.28-1.91-3.26A7.86,7.86,0,0,0,40,73.91a10,10,0,0,0,20,0A7.85,7.85,0,0,0,53.07,66.23Z" fill="#4c3526"/><path d="M37.15,81.11A32.35,32.35,0,0,0,50,83.64a32.35,32.35,0,0,0,12.85-2.53A29.36,29.36,0,0,0,50,78.34,29.36,29.36,0,0,0,37.15,81.11Z" fill="#ff717f"/><path d="M74.92,56.67H25.08c-3.42,0-3.42,6.66-.09,6.66H75C78.34,63.33,78.34,56.67,74.92,56.67Z" fill="#fff"/><path d="M95.73,58.12c12.18,12.8-4.36,30.2-16.55,17.4-8.89-9.35-9.29-27.17-9.29-27.17S86.84,48.78,95.73,58.12Z" fill="#65b1ef"/><path d="M20.81,75.52C8.64,88.32-7.91,70.92,4.27,58.12c8.89-9.34,25.84-9.77,25.84-9.77S29.71,66.17,20.81,75.52Z" fill="#65b1ef"/><path d="M44.21,44.45c-3.1-8.52-7.77-12.78-12.44-12.78s-9.33,4.26-12.43,12.78c-.3.86,1.29,2.4,2.09,1.56a13.74,13.74,0,0,1,10.34-4.43A13.75,13.75,0,0,1,42.12,46C42.92,46.85,44.52,45.31,44.21,44.45Z" fill="#664e27"/><path d="M80.66,44.45c-3.1-8.52-7.77-12.78-12.43-12.78s-9.34,4.26-12.44,12.78c-.31.86,1.29,2.4,2.09,1.56a14.29,14.29,0,0,1,20.69,0C79.37,46.85,81,45.31,80.66,44.45Z" fill="#664e27"/></svg>