<svg id="Layer_1" data-name="Layer 1" xmlns="http://www.w3.org/2000/svg" viewBox="0 0 100 100"><polygon points="0 98.33 14.25 93.35 3.48 88.33 0 98.33" fill="#f7b600"/><polygon points="41.57 57.33 21.31 36.96 18.04 46.37 41.57 57.33" fill="#ffdd7d"/><polygon points="18.04 46.37 14.4 56.86 59.08 77.67 61.1 76.97 41.57 57.33 18.04 46.37" fill="#f7b600"/><polygon points="10.76 67.34 44.14 82.9 59.08 77.67 14.4 56.86 10.76 67.34" fill="#ffdd7d"/><polygon points="7.12 77.84 29.2 88.12 44.14 82.9 10.76 67.34 7.12 77.84" fill="#f7b600"/><polygon points="7.12 77.84 3.48 88.33 14.25 93.35 29.2 88.12 7.12 77.84" fill="#ffdd7d"/><path d="M49.81,48.67C61.06,59.73,66.86,72,62.78,76S46.26,74.28,35,63.22s-17-23.29-13-27.31S38.57,37.6,49.81,48.67Z" fill="#493816"/><path d="M35.83,20.8c-2.72-3.77.23-5.46,3.84-4.78-3.43-4.23-1.31-7.17,4.11-6,1.69.36-.67,3.23-2.19,3.12,4.56,3.41,2.06,7-2.76,6.17,4.26,5.86-3.07,4.41-6.27,4.66-.84,4.38,4.17,9.38,2.5,9.38C31.32,33.33,25.38,19.5,35.83,20.8Z" fill="#42ade2"/><path d="M70.91,28.89C68.44,30,61.4,19,70,18.89c-5-4.51-4.32-6.69,2.34-6.82-7.63-7.64,4.42-10.4,5.69-6.31.38,1.22-3.69-1.08-5,1.11-1.53,2.54,9.38,8.94-1.88,8.56,4.14,4.22,4.39,6.18-2.22,6.89C69.82,23.51,72.47,28.18,70.91,28.89Z" fill="#ff8736"/><path d="M73.71,54.89l2.53-2.15a28.54,28.54,0,0,0,4.08,4.77c1.29-5.94.94-9.54,7.86-5.43-3.91-10.32,2.53-6.42,8.62-3.62-.35-2.62.06-2.35,2.7-3.09,2.34,8.78-4,6.24-9.08,3.35,2.93,7.93-.14,7.56-6.56,4.85-.11,3.36-1.2,7.17-3.22,7.49C78.35,61.44,73.71,54.89,73.71,54.89Z" fill="#ed4c5c"/><path d="M55,30.09c-3.08,4-7.77,6.24-11.32,9.74-3.7,3.65-5.91,13.68-5.91,13.68S39.11,43.05,42.65,39c3.2-3.64,7.77-6.29,10.25-10.53,4.43-7.58.47-17.72-5.18-23.51,1.19-1.05,2.76-2.39,3.72-3.31C56.76,8.49,61.49,21.68,55,30.09Z" fill="#c28fef"/><path d="M60.14,38.63C55.73,41.8,52.7,46.4,49.63,50.78c-2.71,3.87-11.18,8.62-11.18,8.62s8-5.43,10.44-9.5c3-5,6-10.18,10.63-13.8,9.34-7.25,22.8-6.43,33.36-2.62L91,38.17S69,32.24,60.14,38.63Z" fill="#ff8736"/><path d="M78.74,37.86c-2.8,3.72-4.24,8.2-6.39,12.29-2,3.8-4.64,7.48-8.55,9.5-4.25,2.2-13.88,1.44-13.88,1.44s9.57-.11,13.51-2.76,6.12-7.29,7.7-11.7c2.94-8.26,6.63-17.29,15.32-21l1.75,4.72S83.41,31.67,78.74,37.86Z" fill="#42ade2"/><rect x="3.42" y="17.11" width="6.67" height="6.67" transform="translate(-12.48 10.76) rotate(-45.01)" fill="#42ade2"/><rect x="9.99" y="31.99" width="6.67" height="6.67" transform="translate(-21.08 19.77) rotate(-45)" fill="#ff8736"/><rect x="22.03" y="9.71" width="6.67" height="6.67" transform="translate(-1.79 21.76) rotate(-45.01)" fill="#ed4c5c"/><rect x="73.35" y="66.09" width="6.67" height="6.67" transform="translate(-26.63 74.56) rotate(-45)" fill="#c28fef"/><rect x="62.84" y="82.26" width="6.67" height="6.67" transform="translate(-41.14 71.86) rotate(-45)" fill="#ed4c5c"/><rect x="83.52" y="85.99" width="6.67" height="6.67" transform="translate(-37.72 87.57) rotate(-45)" fill="#ff8736"/><rect x="88.23" y="64.51" width="6.67" height="6.67" transform="translate(-21.15 84.62) rotate(-45)" fill="#42ade2"/><rect x="80.37" y="14.71" width="6.67" height="6.67" transform="translate(11.75 64.47) rotate(-45)" fill="#42ade2"/><rect x="29.8" y="43.05" width="6.67" height="6.67" transform="translate(-23.09 37.01) rotate(-45)" fill="#ed4c5c"/></svg>