<svg id="Layer_1" data-name="Layer 1" xmlns="http://www.w3.org/2000/svg" viewBox="0 0 100 100"><rect width="100" height="100" rx="16.67" fill="#4fd1d9"/><path d="M21.67,59.52a4,4,0,0,1-4.17-3.81V44.28a4,4,0,0,1,4.17-3.8,4,4,0,0,1,4.16,3.8H30c0-4.2-3.74-7.61-8.33-7.61s-8.34,3.41-8.34,7.61V55.71c0,4.2,3.74,7.62,8.34,7.62S30,59.91,30,55.71H25.83A4,4,0,0,1,21.67,59.52Z" fill="#fff"/><path d="M41.67,59.52a4,4,0,0,1-4.17-3.81V44.28a4.18,4.18,0,0,1,8.33,0V55.71A4,4,0,0,1,41.67,59.52Zm0-22.85c-4.6,0-8.34,3.41-8.34,7.61V55.71c0,4.2,3.74,7.62,8.34,7.62S50,59.91,50,55.71V44.28C50,40.08,46.26,36.67,41.67,36.67Z" fill="#fff"/><path d="M61.67,59.52a4,4,0,0,1-4.17-3.81V44.28a4.18,4.18,0,0,1,8.33,0V55.71A4,4,0,0,1,61.67,59.52Zm0-22.85c-4.6,0-8.34,3.41-8.34,7.61V55.71c0,4.2,3.74,7.62,8.34,7.62S70,59.91,70,55.71V44.28C70,40.08,66.26,36.67,61.67,36.67Z" fill="#fff"/><polygon points="77.14 36.67 73.33 36.67 73.33 63.33 86.67 63.33 86.67 59.52 77.14 59.52 77.14 36.67" fill="#fff"/></svg>