<svg id="Layer_1" data-name="Layer 1" xmlns="http://www.w3.org/2000/svg" viewBox="0 0 100 100"><circle cx="50" cy="50" r="50" fill="#ffdd67"/><path d="M44.35,29.74,24.1,50c-1.28,1.28-5.93-3.36-4.64-4.64L39.71,25.1C41,23.82,45.64,28.46,44.35,29.74Z" fill="#664e27"/><path d="M39.71,50,19.45,29.74c-1.28-1.28,3.37-5.92,4.64-4.64L44.35,45.36C45.63,46.64,41,51.28,39.71,50Z" fill="#664e27"/><path d="M80.55,29.74,60.29,50c-1.28,1.28-5.92-3.36-4.63-4.64L75.91,25.1C77.19,23.82,81.83,28.46,80.55,29.74Z" fill="#664e27"/><path d="M75.91,50,55.66,29.74c-1.29-1.28,3.35-5.92,4.63-4.64L80.55,45.36C81.83,46.64,77.19,51.28,75.91,50Z" fill="#664e27"/><circle cx="50" cy="75" r="15" fill="#664e27"/><path d="M40,70c2-4,5.73-6.67,10-6.67S58,66,60,70Z" fill="#fff"/></svg>