<svg id="Layer_1" data-name="Layer 1" xmlns="http://www.w3.org/2000/svg" viewBox="0 0 100 100"><polygon points="6.68 67.4 23.32 67.4 30 0 0 0 6.68 67.4" fill="#ff5a79" fill-rule="evenodd"/><ellipse cx="15" cy="87.26" rx="12.77" ry="12.74" fill="#ff5a79"/><path d="M63.75.11C44.35,1.32,34.22,12.3,33.33,32.16H52.9c.24-6.88,4.08-12,11.23-12.78s13.68.92,15.7,5.72c2.17,5.19-2.72,11.21-5,13.74C70.49,43.53,63.5,47,59.87,52s-4.18,11.47-4.45,19.45H72.66c.24-5.1.58-10,2.9-13.16,3.78-5.15,9.42-7.57,14.15-11.64,4.51-3.89,9.26-8.58,10.07-15.83C102.2,9.11,84.47-1.18,63.75.11Z" fill="#ff5a79" fill-rule="evenodd"/><ellipse cx="64.19" cy="89.28" rx="10.89" ry="10.72" fill="#ff5a79"/></svg>