<svg id="Layer_1" data-name="Layer 1" xmlns="http://www.w3.org/2000/svg" viewBox="0 0 100 100"><path d="M32.31,45C25.91,69.48,23.08,91.24,37,91.24c14.59,0,13.24-21.74,13.24-46.59S50.86,0,43.26,0C35.1,0,38.56,21.14,32.31,45Z" fill="#ffc95c"/><path d="M32.52,75.51c16,0,16.42-7.87,16.42-32.73,0-19.39.49-35.66-3.2-41.88,5.43,4.13,4.75,22,4.75,43.69,0,24.86,5.81,46.65-10.2,46.65C36.79,91.24,30,75.51,32.52,75.51Z" fill="#eba352"/><path d="M56.74,0c-7.6,0-6.94,19.79-6.94,44.65S48.45,91.24,63,91.24c13.88,0,11.05-21.77,4.65-46.23C61.44,21.14,64.9,0,56.74,0Z" fill="#ffc95c"/><path d="M59.71,91.24c-16,0-10.2-21.79-10.2-46.65C49.51,22.85,48.82,5,54.25.9c-3.68,6.22-3.2,22.49-3.2,41.88,0,24.86.42,32.73,16.43,32.73C70,75.51,63.21,91.24,59.71,91.24Z" fill="#eba352"/><path d="M18.51,76.22l12.63,22,14.35-7.43L28.25,63.32S24,74.07,18.51,76.22Z" fill="#ffc95c"/><path d="M31.53,60.31c-1.67,2.75-2.34,14.78-10.15,18.06L30.5,97s10.11-2.5,14.15-5c11.16-6.84-1.56-15.06,5-30.18,3.65-8.45-3-28.52-11-28.52s-4.27,11.48-5,14.47C32.62,51.4,33,55.8,31.53,60.31Z" fill="#ffdd67"/><path d="M44.21,90.62c11.16-6.84-2.67-14.94,3.85-30.06,2.91-6.75-.76-20.87-6.4-26.31,6.49,4.1,11.5,19.88,8.11,27.57-6.64,15.07,7.5,22.94-4,30-.86.53-7.14,3.28-14.55,6.52L30.1,96.16A67.49,67.49,0,0,0,44.21,90.62Z" fill="#eba352"/><path d="M71.74,63.32,54.51,90.83l14.34,7.43,12.64-22C76,74.07,71.74,63.32,71.74,63.32Z" fill="#ffc95c"/><path d="M66.43,47.74c-.77-3,2.95-14.47-5-14.47s-14.65,20.06-11,28.52c6.52,15.12-6.2,23.34,5,30.18,4,2.48,14.15,5,14.15,5l9.11-18.59c-7.8-3.28-8.48-15.32-10.14-18.06C67,55.8,67.38,51.4,66.43,47.74Z" fill="#ffdd67"/><path d="M69.9,96.16l-1.11,2.22c-7.41-3.25-13.7-6-14.55-6.52-11.51-7.1,2.63-15-4-30-3.39-7.69,1.62-23.47,8.11-27.58-5.65,5.45-9.31,19.57-6.4,26.31,6.52,15.13-7.31,23.23,3.85,30.07A66.94,66.94,0,0,0,69.9,96.16Z" fill="#eba352"/><path d="M0,88.85V100H37c4.13-8-19.4-26-19.4-26Z" fill="#47b892"/><path d="M82.4,74S58.87,92,63,100h37V88.84Z" fill="#47b892"/></svg>