<svg id="Layer_1" data-name="Layer 1" xmlns="http://www.w3.org/2000/svg" viewBox="0 0 100 100"><path d="M100,50A50,50,0,1,1,50,0,50,50,0,0,1,100,50Z" fill="#ffdd67"/><path d="M99.75,18.7c-.78-4.42-3.39-8.15-7.44-9.26C87.89,8.23,83.84,10,79.91,14,77.71,7.9,74.35,3.41,69,1.1A11.4,11.4,0,0,0,55,4.54c-3.46,4.38-4.83,11.13-1.13,20,3.47,8.26,19,25,19.47,25.5.6-.38,17.92-11.2,22.17-16.51S100.52,23.11,99.75,18.7Z" fill="#f46767"/><path d="M45,4.54A11.39,11.39,0,0,0,31,1.1C25.65,3.41,22.29,7.9,20.09,14c-3.93-4-8-5.72-12.4-4.5C3.64,10.55,1,14.28.25,18.7s.1,9.59,4.24,14.79S26.06,49.62,26.67,50c.44-.48,16-17.24,19.47-25.5C49.84,15.67,48.46,8.92,45,4.54Z" fill="#f46767"/><path d="M78.33,60.09a3.47,3.47,0,0,0-3-3.45A135.45,135.45,0,0,0,50,54.4h0a135.27,135.27,0,0,0-25.3,2.24,3.47,3.47,0,0,0-3,3.45C21.66,72.2,31,84.4,50,84.4h0C69,84.4,78.33,72.2,78.33,60.09Z" fill="#664e27"/><path d="M71.15,60.47a134,134,0,0,0-42.3,0c-2.16.37-2.29,1.24-2.14,2.48.09.74.23,1.62.44,2.59s.44,1.56,2.11,1.36c3.2-.38,38.28-.38,41.48,0,1.68.2,1.87-.3,2.11-1.36s.35-1.85.44-2.59C73.44,61.71,73.31,60.84,71.15,60.47Z" fill="#fff"/></svg>