<svg id="Layer_1" data-name="Layer 1" xmlns="http://www.w3.org/2000/svg" viewBox="0 0 100 100"><circle cx="50" cy="50" r="50" fill="#ffdd67"/><polygon points="81.42 93.33 81.43 93.33 81.42 93.33 81.42 93.33 81.42 93.33" fill="#f46767"/><ellipse cx="33.33" cy="41.67" rx="8.33" ry="10" fill="#664e27"/><path d="M98.94,67.61a8.44,8.44,0,0,0-8.31-4.72c-3.88.26-6.86,2.35-9.31,5.78C78.85,65.27,75.85,63.2,72,63a8.43,8.43,0,0,0-8.27,4.79c-1.51,3.06-1.58,7.06,1.51,11.61S81,93,81.43,93.32c.4-.3,13.09-9.59,16.09-14.08S100.48,70.66,98.94,67.61Z" fill="#f46767"/><path d="M83.09,47.57C80,40.75,75.3,37.35,70.62,37.35s-9.35,3.4-12.46,10.22c-.31.68,1.3,1.92,2.1,1.25a15.62,15.62,0,0,1,10.36-3.55A15.63,15.63,0,0,1,81,48.82C81.79,49.49,83.39,48.26,83.09,47.57Z" fill="#664e27"/><path d="M62.57,80.62c2.64-2.73-3-5-3-9.79s5.69-7,3-9.78c-3.16-3.27-10-.8-14.3-5.22,0,3.59,3,7.5,8.63,7.5,0,0-3.82,1.54-3.82,7.5s3.82,7.5,3.82,7.5c-5.62,0-8.63,3.92-8.63,7.5C52.54,81.42,59.41,83.89,62.57,80.62Z" fill="#664e27"/></svg>