<svg id="Layer_1" data-name="Layer 1" xmlns="http://www.w3.org/2000/svg" viewBox="0 0 100 100"><path d="M50.34,58.15C21.91,58.15,0,46.31,0,72.88,0,94.09,28.15,100,49.65,100c25,0,50.35-5.91,50.35-27.12C100,46.31,79.73,58.15,50.34,58.15Z" fill="#89664c"/><path d="M49.55,31.46c-15.92,0-40.84,1.86-40.84,21,0,28,82.58,28,82.58,0C91.29,33.32,66.47,31.46,49.55,31.46Z" fill="#9b7861"/><path d="M78.35,24.5C70.59,7.27,34.41,25,40.62,4.12c.94-3.14.9-4.52-1.49-4-13,2.7-22.4,16.11-19.1,27.2C30.66,63,88.83,47.75,78.35,24.5Z" fill="#a88673"/><path d="M44.75,53.86a12,12,0,1,1-12-12A12,12,0,0,1,44.75,53.86Z" fill="#fff"/><circle cx="36.05" cy="53.87" r="6.01" fill="#231f20"/><path d="M79.27,53.86a12,12,0,1,1-12-12A12,12,0,0,1,79.27,53.86Z" fill="#fff"/><path d="M64,47.86a6,6,0,1,1-6,6A6,6,0,0,1,64,47.86Z" fill="#231f20"/><path d="M60,81.05a10,10,0,1,1-10-10A10,10,0,0,1,60,81.05Z" fill="#231f20"/></svg>