<svg id="Layer_1" data-name="Layer 1" xmlns="http://www.w3.org/2000/svg" viewBox="0 0 100 100"><path d="M96.14,19.66c2.86-8.73,2-24.8-27.64-5.3C38.25,34.22,7.06,80.56,9.36,88.93c1.81,6.63,28.79-8.41,43.34-28.65,1.24-1.73,14.44,14.61,12.63,16.4-13.06,13-54.9,29.48-63.66,21C-8.5,87.79,29.47,31.35,68.44,8.89,79.24,2.66,110.93-12.08,96.14,19.66Z" fill="#ffdd7d"/><polygon points="97.69 79.15 74.53 76.59 59.34 94.23 54.58 71.39 33.13 62.34 53.31 50.8 55.27 27.56 72.51 43.24 95.17 37.95 85.62 59.19 97.69 79.15" fill="#ffd05a"/></svg>