<svg id="Layer_1" data-name="Layer 1" xmlns="http://www.w3.org/2000/svg" viewBox="0 0 100 100"><path d="M34.48,1.14V1.9h0C34.49,1.41,34.48,1.14,34.48,1.14Z" fill="#ffe54d"/><path d="M34.48,88.63s0-.27,0-.76h0Z" fill="#ffe54d"/><path d="M64.23,44.88C36.06,42.47,34.54,7.5,34.48,1.9h0c-.06,5.6-1.58,40.57-29.74,43,28.16,2.42,29.68,37.39,29.74,43h0C34.54,82.27,36.06,47.3,64.23,44.88Z" fill="#ffe54d"/><path d="M95.26,24.79C79,23.4,78.15,3.23,78.11,0h0c0,3.23-.91,23.4-17.16,24.79C77.2,26.18,78.07,46.35,78.11,49.58h0C78.15,46.35,79,26.18,95.26,24.79Z" fill="#6adbc6"/><path d="M88,74.79C71.51,73.38,70.61,52.87,70.58,49.58h0c0,3.29-.93,23.8-17.45,25.21C69.65,76.21,70.54,96.71,70.58,100h0C70.61,96.71,71.51,76.21,88,74.79Z" fill="#ff73c0"/></svg>