<svg id="Layer_1" data-name="Layer 1" xmlns="http://www.w3.org/2000/svg" viewBox="0 0 100 100"><path d="M50,0A50,50,0,1,1,0,50,50,50,0,0,1,50,0" fill="#ffdd67" fill-rule="evenodd"/><path d="M56.42,30.79a15.68,15.68,0,0,1-12.83,0A38.82,38.82,0,0,0,29.16,27c-5.59-.49-17.45-.47-23.38,1.61a16.87,16.87,0,0,0-2,.88c-.36.19-.43.32-.43,1v.88c0,1.65-.21,1,1,1.7,2.3,1.34,3.61,4.85,4.31,9.66,1,7,4.45,11.43,10,13.53a22.43,22.43,0,0,0,16.15-.18,15.36,15.36,0,0,0,7.26-5.79c3.44-5.06,2.41-8.23,4.19-12.58,1.55-3.79,5.91-3.79,7.46,0,1.78,4.35.75,7.52,4.19,12.58a15.36,15.36,0,0,0,7.26,5.79,22.43,22.43,0,0,0,16.15.18c5.59-2.1,9-6.5,10-13.53.7-4.81,2-8.32,4.31-9.66,1.18-.69,1,0,1-1.7v-.88c0-.69-.07-.82-.43-1a16.87,16.87,0,0,0-2-.88C88.28,26.52,76.43,26.5,70.84,27a38.71,38.71,0,0,0-14.42,3.8" fill="#494949" fill-rule="evenodd"/><path d="M71,67.13c-13.51,9.43-28.5,9.37-41.94,0-1.62-1.13-3.08.83-2,2.63a27,27,0,0,0,45.9,0C74.05,68,72.59,66,71,67.13Z" fill="#664e27"/></svg>